<?xml version="1.0" encoding="UTF-8"?>
<svg width="1200" height="630" viewBox="0 0 1200 630" version="1.1" xmlns="http://www.w3.org/2000/svg">
  <!-- Dark Background -->
  <rect width="1200" height="630" fill="#0A0A0A"/>
  
  <!-- Grid Pattern Background -->
  <defs>
    <!-- Base Grid -->
    <pattern id="smallGrid" width="80" height="80" patternUnits="userSpaceOnUse">
      <path d="M 80 0 L 0 0 0 80" fill="none" stroke="rgb(255 255 255 / 0.05)" stroke-width="1"/>
    </pattern>
    <!-- Larger Grid -->
    <pattern id="largeGrid" width="240" height="240" patternUnits="userSpaceOnUse">
      <path d="M 240 0 L 0 0 0 240" fill="none" stroke="rgb(255 255 255 / 0.08)" stroke-width="1"/>
    </pattern>
  </defs>
  
  <!-- Apply Grid Patterns -->
  <rect width="1200" height="630" fill="url(#smallGrid)"/>
  <rect width="1200" height="630" fill="url(#largeGrid)"/>

  <!-- Accent Glows -->
  <defs>
    <radialGradient id="glow1" cx="0.5" cy="0.5" r="0.5">
      <stop offset="0%" stop-color="#00FF94" stop-opacity="0.15"/>
      <stop offset="100%" stop-color="#00FF94" stop-opacity="0"/>
    </radialGradient>
  </defs>

  <!-- Single Centered Glow -->
  <circle cx="600" cy="315" r="400" fill="url(#glow1)" opacity="0.4" class="mix-blend-soft-light"/>
  
  <!-- Center the Matrix Text -->
  <g transform="translate(350, 160)">
    <!-- Matrix Text -->
    <g transform="scale(10)">
      <!-- ZERO -->
      <!-- Z -->
      <circle cx="10" cy="10" r="0.4" fill="#00FF94"/>
      <circle cx="11" cy="10" r="0.4" fill="#00FF94"/>
      <circle cx="12" cy="10" r="0.4" fill="#00FF94"/>
      <circle cx="13" cy="10" r="0.4" fill="#00FF94"/>
      <circle cx="14" cy="10" r="0.4" fill="#00FF94"/>
      <circle cx="13" cy="11" r="0.4" fill="#00FF94"/>
      <circle cx="12" cy="12" r="0.4" fill="#00FF94"/>
      <circle cx="11" cy="13" r="0.4" fill="#00FF94"/>
      <circle cx="10" cy="14" r="0.4" fill="#00FF94"/>
      <circle cx="11" cy="14" r="0.4" fill="#00FF94"/>
      <circle cx="12" cy="14" r="0.4" fill="#00FF94"/>
      <circle cx="13" cy="14" r="0.4" fill="#00FF94"/>
      <circle cx="14" cy="14" r="0.4" fill="#00FF94"/>

      <!-- E -->
      <circle cx="16" cy="10" r="0.4" fill="#00FF94"/>
      <circle cx="17" cy="10" r="0.4" fill="#00FF94"/>
      <circle cx="18" cy="10" r="0.4" fill="#00FF94"/>
      <circle cx="19" cy="10" r="0.4" fill="#00FF94"/>
      <circle cx="16" cy="11" r="0.4" fill="#00FF94"/>
      <circle cx="16" cy="12" r="0.4" fill="#00FF94"/>
      <circle cx="17" cy="12" r="0.4" fill="#00FF94"/>
      <circle cx="18" cy="12" r="0.4" fill="#00FF94"/>
      <circle cx="16" cy="13" r="0.4" fill="#00FF94"/>
      <circle cx="16" cy="14" r="0.4" fill="#00FF94"/>
      <circle cx="17" cy="14" r="0.4" fill="#00FF94"/>
      <circle cx="18" cy="14" r="0.4" fill="#00FF94"/>
      <circle cx="19" cy="14" r="0.4" fill="#00FF94"/>

      <!-- R -->
      <circle cx="21" cy="10" r="0.4" fill="#00FF94"/>
      <circle cx="22" cy="10" r="0.4" fill="#00FF94"/>
      <circle cx="23" cy="10" r="0.4" fill="#00FF94"/>
      <circle cx="24" cy="10" r="0.4" fill="#00FF94"/>
      <circle cx="21" cy="11" r="0.4" fill="#00FF94"/>
      <circle cx="24" cy="11" r="0.4" fill="#00FF94"/>
      <circle cx="21" cy="12" r="0.4" fill="#00FF94"/>
      <circle cx="22" cy="12" r="0.4" fill="#00FF94"/>
      <circle cx="23" cy="12" r="0.4" fill="#00FF94"/>
      <circle cx="21" cy="13" r="0.4" fill="#00FF94"/>
      <circle cx="23" cy="13" r="0.4" fill="#00FF94"/>
      <circle cx="21" cy="14" r="0.4" fill="#00FF94"/>
      <circle cx="24" cy="14" r="0.4" fill="#00FF94"/>

      <!-- O -->
      <circle cx="26" cy="10" r="0.4" fill="#00FF94"/>
      <circle cx="27" cy="10" r="0.4" fill="#00FF94"/>
      <circle cx="28" cy="10" r="0.4" fill="#00FF94"/>
      <circle cx="29" cy="10" r="0.4" fill="#00FF94"/>
      <circle cx="26" cy="11" r="0.4" fill="#00FF94"/>
      <circle cx="29" cy="11" r="0.4" fill="#00FF94"/>
      <circle cx="26" cy="12" r="0.4" fill="#00FF94"/>
      <circle cx="29" cy="12" r="0.4" fill="#00FF94"/>
      <circle cx="26" cy="13" r="0.4" fill="#00FF94"/>
      <circle cx="29" cy="13" r="0.4" fill="#00FF94"/>
      <circle cx="26" cy="14" r="0.4" fill="#00FF94"/>
      <circle cx="27" cy="14" r="0.4" fill="#00FF94"/>
      <circle cx="28" cy="14" r="0.4" fill="#00FF94"/>
      <circle cx="29" cy="14" r="0.4" fill="#00FF94"/>

      <!-- DELTA -->
      <!-- D -->
      <circle cx="35" cy="10" r="0.4" fill="#FFFFFF"/>
      <circle cx="36" cy="10" r="0.4" fill="#FFFFFF"/>
      <circle cx="37" cy="10" r="0.4" fill="#FFFFFF"/>
      <circle cx="38" cy="10" r="0.4" fill="#FFFFFF"/>
      <circle cx="35" cy="11" r="0.4" fill="#FFFFFF"/>
      <circle cx="38" cy="11" r="0.4" fill="#FFFFFF"/>
      <circle cx="35" cy="12" r="0.4" fill="#FFFFFF"/>
      <circle cx="38" cy="12" r="0.4" fill="#FFFFFF"/>
      <circle cx="35" cy="13" r="0.4" fill="#FFFFFF"/>
      <circle cx="38" cy="13" r="0.4" fill="#FFFFFF"/>
      <circle cx="35" cy="14" r="0.4" fill="#FFFFFF"/>
      <circle cx="36" cy="14" r="0.4" fill="#FFFFFF"/>
      <circle cx="37" cy="14" r="0.4" fill="#FFFFFF"/>
      <circle cx="38" cy="14" r="0.4" fill="#FFFFFF"/>

      <!-- E -->
      <circle cx="40" cy="10" r="0.4" fill="#FFFFFF"/>
      <circle cx="41" cy="10" r="0.4" fill="#FFFFFF"/>
      <circle cx="42" cy="10" r="0.4" fill="#FFFFFF"/>
      <circle cx="43" cy="10" r="0.4" fill="#FFFFFF"/>
      <circle cx="40" cy="11" r="0.4" fill="#FFFFFF"/>
      <circle cx="40" cy="12" r="0.4" fill="#FFFFFF"/>
      <circle cx="41" cy="12" r="0.4" fill="#FFFFFF"/>
      <circle cx="42" cy="12" r="0.4" fill="#FFFFFF"/>
      <circle cx="40" cy="13" r="0.4" fill="#FFFFFF"/>
      <circle cx="40" cy="14" r="0.4" fill="#FFFFFF"/>
      <circle cx="41" cy="14" r="0.4" fill="#FFFFFF"/>
      <circle cx="42" cy="14" r="0.4" fill="#FFFFFF"/>
      <circle cx="43" cy="14" r="0.4" fill="#FFFFFF"/>

      <!-- L -->
      <circle cx="45" cy="10" r="0.4" fill="#FFFFFF"/>
      <circle cx="45" cy="11" r="0.4" fill="#FFFFFF"/>
      <circle cx="45" cy="12" r="0.4" fill="#FFFFFF"/>
      <circle cx="45" cy="13" r="0.4" fill="#FFFFFF"/>
      <circle cx="45" cy="14" r="0.4" fill="#FFFFFF"/>
      <circle cx="46" cy="14" r="0.4" fill="#FFFFFF"/>
      <circle cx="47" cy="14" r="0.4" fill="#FFFFFF"/>
      <circle cx="48" cy="14" r="0.4" fill="#FFFFFF"/>

      <!-- T -->
      <circle cx="50" cy="10" r="0.4" fill="#FFFFFF"/>
      <circle cx="51" cy="10" r="0.4" fill="#FFFFFF"/>
      <circle cx="52" cy="10" r="0.4" fill="#FFFFFF"/>
      <circle cx="53" cy="10" r="0.4" fill="#FFFFFF"/>
      <circle cx="54" cy="10" r="0.4" fill="#FFFFFF"/>
      <circle cx="52" cy="11" r="0.4" fill="#FFFFFF"/>
      <circle cx="52" cy="12" r="0.4" fill="#FFFFFF"/>
      <circle cx="52" cy="13" r="0.4" fill="#FFFFFF"/>
      <circle cx="52" cy="14" r="0.4" fill="#FFFFFF"/>

      <!-- A -->
      <circle cx="56" cy="10" r="0.4" fill="#FFFFFF"/>
      <circle cx="57" cy="10" r="0.4" fill="#FFFFFF"/>
      <circle cx="58" cy="10" r="0.4" fill="#FFFFFF"/>
      <circle cx="59" cy="10" r="0.4" fill="#FFFFFF"/>
      <circle cx="56" cy="11" r="0.4" fill="#FFFFFF"/>
      <circle cx="59" cy="11" r="0.4" fill="#FFFFFF"/>
      <circle cx="56" cy="12" r="0.4" fill="#FFFFFF"/>
      <circle cx="57" cy="12" r="0.4" fill="#FFFFFF"/>
      <circle cx="58" cy="12" r="0.4" fill="#FFFFFF"/>
      <circle cx="59" cy="12" r="0.4" fill="#FFFFFF"/>
      <circle cx="56" cy="13" r="0.4" fill="#FFFFFF"/>
      <circle cx="59" cy="13" r="0.4" fill="#FFFFFF"/>
      <circle cx="56" cy="14" r="0.4" fill="#FFFFFF"/>
      <circle cx="59" cy="14" r="0.4" fill="#FFFFFF"/>
    </g>
  </g>
</svg> 